<svg xmlns="http://www.w3.org/2000/svg" viewBox="0 0 512 512" role="img" aria-label="RealYou Chat"><defs><linearGradient id="g" x1="48" y1="48" x2="464" y2="464"><stop stop-color="#22c55e"/><stop offset="0.48" stop-color="#0ea5e9"/><stop offset="1" stop-color="#7c3aed"/></linearGradient></defs><rect width="512" height="512" rx="116" fill="url(#g)"/><path d="M168 150h176a74 74 0 0 1 74 74v46a74 74 0 0 1-74 74H245l-77 70v-76a74 74 0 0 1-74-74v-40a74 74 0 0 1 74-74Z" fill="#f8fafc"/><rect x="177" y="215" width="158" height="32" rx="16" fill="#020617"/><rect x="177" y="274" width="124" height="32" rx="16" fill="#020617"/><circle cx="355" cy="355" r="78" fill="#fff"/><circle cx="355" cy="355" r="50" fill="#22c55e"/></svg>